<?xml version="1.0" encoding="UTF-8"?>
<svg version="1.1" xmlns="http://www.w3.org/2000/svg" width="247" height="251">
<path d="M0 0 C81.51 0 163.02 0 247 0 C247 82.83 247 165.66 247 251 C165.49 251 83.98 251 0 251 C0 168.17 0 85.34 0 0 Z " fill="#FBFBFB" transform="translate(0,0)"/>
<path d="M0 0 C0.92401611 0.00491455 1.84803223 0.0098291 2.80004883 0.01489258 C16.27211711 0.2444699 28.57466443 3.11196002 38.625 12.5 C52.9915791 27.78035445 49.8125 45.45845782 49.8125 66.3125 C88.0925 66.3125 126.3725 66.3125 165.8125 66.3125 C165.8125 74.2325 165.8125 82.1525 165.8125 90.3125 C127.5325 90.3125 89.2525 90.3125 49.8125 90.3125 C49.915625 103.55375 50.01875 116.795 50.125 130.4375 C50.14989502 134.59102051 50.17479004 138.74454102 50.20043945 143.02392578 C50.23707968 146.80518036 50.23707968 146.80518036 50.2775116 150.58639526 C50.29347378 152.24740447 50.30388742 153.90847353 50.30961609 155.56954956 C50.3670183 170.28969903 50.45575966 186.94774818 60.8203125 198.5625 C71.19422132 208.39421846 81.69954271 209.78370377 95.41796875 209.5859375 C106.1874427 209.2079299 115.92043232 205.81688716 123.8125 198.3125 C131.59909313 188.61544165 133.87062093 179.59662269 132.8125 167.3125 C131.36127734 160.43053005 127.85626142 156.31861548 122.0625 152.5 C117.86860188 150.96761415 114.23053628 150.67669404 109.8125 151.3125 C106.94103006 152.68247157 106.94103006 152.68247157 104.8125 154.3125 C104.1525 154.3125 103.4925 154.3125 102.8125 154.3125 C100.27344898 159.07322067 100.08618329 164.05092662 100.8125 169.3125 C102.69663915 172.64058239 102.69663915 172.64058239 104.8125 175.3125 C104.8125 179.3125 104.8125 179.3125 103.57495117 180.85229492 C102.72380737 181.56542847 102.72380737 181.56542847 101.85546875 182.29296875 C101.23736328 182.81697266 100.61925781 183.34097656 99.98242188 183.88085938 C99.32822266 184.41517578 98.67402344 184.94949219 98 185.5 C97.35740234 186.04591797 96.71480469 186.59183594 96.05273438 187.15429688 C91.25797347 191.16400884 91.25797347 191.16400884 87.8125 192.3125 C79.31040432 186.69099115 74.26911727 179.10117498 71.8125 169.3125 C70.59403051 158.80152696 72.847877 150.04544481 78.96875 141.44921875 C86.61127476 132.59230976 97.56643283 129.15809691 108.8125 127.3125 C122.66910621 126.30504711 135.78893893 128.20703856 146.8125 137.3125 C147.43640625 137.81394531 148.0603125 138.31539062 148.703125 138.83203125 C155.62590084 145.01738097 160.29090776 154.14352293 160.96533203 163.41308594 C161.88788425 181.91642075 158.92760709 197.994369 146.625 212.4375 C139.2950328 220.25209313 130.82993922 225.58328643 120.8125 229.3125 C119.75675781 229.70695313 118.70101562 230.10140625 117.61328125 230.5078125 C108.35674018 233.36983493 99.34986632 233.69959178 89.6875 233.75 C87.81227661 233.7651062 87.81227661 233.7651062 85.89916992 233.78051758 C74.36778032 233.67379451 62.93595728 232.19495738 52.625 226.75 C51.95919922 226.40340332 51.29339844 226.05680664 50.60742188 225.69970703 C37.81908248 218.74134589 28.83306478 208.17242689 24.46875 194.29296875 C22.0205463 185.73514361 20.65867052 177.52292723 20.69897461 168.64501953 C20.69882858 167.79558273 20.69868256 166.94614594 20.6985321 166.07096863 C20.69922563 163.27905677 20.70699174 160.48721263 20.71484375 157.6953125 C20.71670992 155.75332679 20.71813288 153.8113406 20.71913147 151.86935425 C20.72294098 146.76976206 20.73275786 141.67019856 20.74383545 136.57061768 C20.75408327 131.36218656 20.75863631 126.1537508 20.76367188 120.9453125 C20.77438157 110.7343604 20.79196566 100.52343708 20.8125 90.3125 C9.2625 90.3125 -2.2875 90.3125 -14.1875 90.3125 C-14.1875 82.3925 -14.1875 74.4725 -14.1875 66.3125 C-2.6375 66.3125 8.9125 66.3125 20.8125 66.3125 C20.73 61.878125 20.6475 57.44375 20.5625 52.875 C20.53881348 50.80520874 20.53881348 50.80520874 20.51464844 48.69360352 C20.28108679 40.19134474 19.57250706 32.89345911 13.1875 26.8125 C7.44700724 23.18692562 1.45658049 23.8002748 -5.1875 24.3125 C-8.8975711 25.28492264 -11.22927858 26.92248744 -13.453125 30.1484375 C-15.7334402 34.33972107 -16.37289237 37.42485422 -17.1875 42.3125 C-26.7575 42.3125 -36.3275 42.3125 -46.1875 42.3125 C-45.10787774 28.27741068 -43.04179037 19.8516467 -32.74609375 10.28515625 C-22.87011554 2.67085244 -12.22887192 -0.07695323 0 0 Z " fill="#3257EA" transform="translate(63.1875,8.6875)"/>
<path d="M0 0 C1.4540625 0.0309375 1.4540625 0.0309375 2.9375 0.0625 C2.7725 1.09375 2.6075 2.125 2.4375 3.1875 C1.48681856 9.2754711 1.48681856 9.2754711 2.9375 15.0625 C2.63345322 16.73475729 2.29121498 18.40003959 1.9375 20.0625 C1.56054773 23.05801404 1.24503423 26.0591338 0.9375 29.0625 C-0.7125 29.3925 -2.3625 29.7225 -4.0625 30.0625 C-4.08715746 25.9507744 -4.10533959 21.83907722 -4.11743164 17.72729492 C-4.1224708 16.32754772 -4.12930216 14.9278058 -4.13793945 13.52807617 C-4.1500232 11.52004223 -4.15519807 9.51197043 -4.16015625 7.50390625 C-4.16539307 6.29420166 -4.17062988 5.08449707 -4.17602539 3.83813477 C-4.0165786 -0.06025343 -3.94306674 0.08047075 0 0 Z " fill="#F3F3F3" transform="translate(4.0625,217.9375)"/>
<path d="M0 0 C0.99 0.33 1.98 0.66 3 1 C3.73460721 5.81575837 3.97757939 9.23430049 3 14 C3.32205743 16.33491639 3.65458149 18.66842508 4 21 C3.67 21.99 3.34 22.98 3 24 C2.01 23.67 1.02 23.34 0 23 C0 21.02 0 19.04 0 17 C0.66 17 1.32 17 2 17 C2 16.34 2 15.68 2 15 C1.34 15 0.68 15 0 15 C0 10.05 0 5.1 0 0 Z " fill="#8C8C8C" transform="translate(2,193)"/>
<path d="M0 0 C0.66 0.33 1.32 0.66 2 1 C-2.00179491 5.77137085 -5.88671902 10.39746113 -11 14 C-11.99 13.67 -12.98 13.34 -14 13 C-9.89962427 7.75027653 -5.47035213 3.79037089 0 0 Z " fill="#131313" transform="translate(38,14)"/>
<path d="M0 0 C2.125 0.375 2.125 0.375 4 1 C4.33 2.32 4.66 3.64 5 5 C0.25 8 0.25 8 -2 8 C-2.125 5.125 -2.125 5.125 -2 2 C-1.34 1.34 -0.68 0.68 0 0 Z " fill="#0E0E0E" transform="translate(185,208)"/>
<path d="M0 0 C0 3.63 0 7.26 0 11 C-1.32 10.67 -2.64 10.34 -4 10 C-3.979375 9.071875 -3.95875 8.14375 -3.9375 7.1875 C-3.84230396 3.97713989 -3.84230396 3.97713989 -5 1 C-3 0 -3 0 0 0 Z " fill="#989898" transform="translate(6,221)"/>
<path d="M0 0 C0.99 0.33 1.98 0.66 3 1 C3.14285714 9.57142857 3.14285714 9.57142857 2 13 C1.01 12.67 0.02 12.34 -1 12 C-1.02712066 10.56260487 -1.04645067 9.12506137 -1.0625 7.6875 C-1.07410156 6.88699219 -1.08570312 6.08648437 -1.09765625 5.26171875 C-1 3 -1 3 0 0 Z " fill="#888888" transform="translate(3,234)"/>
<path d="M0 0 C1.4540625 0.0309375 1.4540625 0.0309375 2.9375 0.0625 C2.9375 0.7225 2.9375 1.3825 2.9375 2.0625 C1.6175 2.0625 0.2975 2.0625 -1.0625 2.0625 C-2.39583333 5.0625 -2.39583333 5.0625 -1.0625 8.0625 C-2.0525 8.7225 -3.0425 9.3825 -4.0625 10.0625 C-4.08939216 8.58343108 -4.10884621 7.10422517 -4.125 5.625 C-4.13660156 4.80128906 -4.14820313 3.97757813 -4.16015625 3.12890625 C-4.00103255 -0.23815127 -3.43619093 0.07012635 0 0 Z " fill="#DFDFDF" transform="translate(4.0625,217.9375)"/>
<path d="M0 0 C1.32 0 2.64 0 4 0 C4.33 0.99 4.66 1.98 5 3 C4.01 3 3.02 3 2 3 C2 3.66 2 4.32 2 5 C1.34 5 0.68 5 0 5 C-0.66 6.32 -1.32 7.64 -2 9 C-3 6 -3 6 -1.5625 2.8125 C-1.046875 1.884375 -0.53125 0.95625 0 0 Z " fill="#111111" transform="translate(22,30)"/>
<path d="M0 0 C0.33 0.99 0.66 1.98 1 3 C1.66 3 2.32 3 3 3 C2.67 5.97 2.34 8.94 2 12 C1.34 12 0.68 12 0 12 C-1.12256131 9.75487738 -1.13413762 8.48543351 -1.125 6 C-1.12886719 4.948125 -1.12886719 4.948125 -1.1328125 3.875 C-1 2 -1 2 0 0 Z " fill="#EEEEEE" transform="translate(1,205)"/>
<path d="M0 0 C1.32 0 2.64 0 4 0 C3.67 0.99 3.34 1.98 3 3 C2.01 2.67 1.02 2.34 0 2 C0 1.34 0 0.68 0 0 Z M-1 2 C-0.34 2.66 0.32 3.32 1 4 C0.34 4 -0.32 4 -1 4 C-1 4.66 -1 5.32 -1 6 C-3.5 7.625 -3.5 7.625 -6 9 C-4.70700306 6.11562221 -3.34058637 4.12780579 -1 2 Z " fill="#EFEFEF" transform="translate(212,217)"/>
<path d="M0 0 C0.99 0.99 1.98 1.98 3 3 C2.01 4.98 1.02 6.96 0 9 C-1.76462683 5.91190305 -2 4.76687864 -2 1 C-1.34 0.67 -0.68 0.34 0 0 Z " fill="#EEEEEE" transform="translate(20,27)"/>
<path d="M0 0 C0.33 1.32 0.66 2.64 1 4 C0.34 4 -0.32 4 -1 4 C-1 4.66 -1 5.32 -1 6 C-3.31 5.67 -5.62 5.34 -8 5 C-7.67 4.34 -7.34 3.68 -7 3 C-5.33499557 2.65846063 -3.66821323 2.32550502 -2 2 C-1.34 1.34 -0.68 0.68 0 0 Z " fill="#EEEEEE" transform="translate(156,197)"/>
<path d="M0 0 C0.66 0.33 1.32 0.66 2 1 C2 3.64 2 6.28 2 9 C1.01 9.33 0.02 9.66 -1 10 C-0.67 6.7 -0.34 3.4 0 0 Z " fill="#E4E4E4" transform="translate(1,238)"/>
</svg>
